<svg viewBox="0 0 1280 500" xmlns="http://www.w3.org/2000/svg" fill-rule="evenodd" clip-rule="evenodd"
    stroke-linecap="round" stroke-linejoin="round" stroke-miterlimit="1.5">
    <path
        d="M640 239.028c76.767 0 153.14 3.426 226.797 10.173 73.658 6.748 143.843 16.748 208.423 29.697 64.58 12.948 122.89 28.713 173.16 46.813 50.28 18.101 91.99 38.352 123.88 60.138 31.89 21.787 53.63 44.884 64.55 68.591 10.93 23.707 10.93 47.779 0 71.486-10.92 23.707-32.66 46.804-64.55 68.591-31.89 21.786-73.6 42.037-123.88 60.138-50.27 18.1-108.58 33.865-173.16 46.813-64.58 12.949-134.765 22.949-208.423 29.697-73.657 6.747-150.03 10.173-226.797 10.173s-153.14-3.426-226.797-10.173c-73.658-6.748-143.843-16.748-208.423-29.697-64.581-12.948-122.893-28.713-173.165-46.813-50.271-18.101-91.986-38.352-123.876-60.138-31.89-21.787-53.628-44.884-64.553-68.591-10.925-23.707-10.925-47.779 0-71.486s32.663-46.804 64.553-68.591c31.89-21.786 73.605-42.037 123.876-60.138 50.272-18.1 108.584-33.865 173.165-46.813 64.58-12.949 134.765-22.949 208.423-29.697 73.657-6.747 150.03-10.173 226.797-10.173z"
        fill="none" stroke="#000" stroke-width="5" />
    <g transform="translate(35.714 25.272) scale(.92046)">
        <clipPath id="prefix__a">
            <path d="M160.909 320.399h173.927v130.445H160.909z" />
        </clipPath>
        <g clip-path="url(#prefix__a)">
            <path d="M334.837 450.845l-173.927-.03-.001-130.34 173.928 130.37z" />
            <path
                d="M334.836 450.845l-173.927-.03-.002-130.34 173.929 130.37zm-169.579-4.377l156.525.026-156.527-117.325.002 117.299z" />
        </g>
    </g>
    <g transform="matrix(.77031 0 0 .9251 156.317 23.449)">
        <clipPath id="prefix__b">
            <path d="M989.091 320.845h130v130h-130z" />
        </clipPath>
        <g clip-path="url(#prefix__b)">
            <path d="M1053.96 320.833l-64.868 64.868 64.858 64.859 64.87-64.868-64.86-64.859z" />
            <path
                d="M1118.82 385.692l-64.87 64.868-64.857-64.859 64.867-64.868 64.86 64.859zm-124.922.009l60.052 60.055 60.07-60.064-60.06-60.054-60.062 60.063z" />
        </g>
    </g>
    <ellipse cx="778.117" cy="393.018" rx="84.137" ry="58.704" transform="translate(-284.602 -21.435) scale(1.02207)" />
    <path
        d="M510.688 323.17l.556.002.555.003.554.007.277.004.276.005.277.005.276.006.276.005.275.007.276.008.275.009.55.018.274.01.274.01.274.012.548.024.274.013.546.027.272.015.273.016.272.016.271.016.544.035.27.019.543.038.541.041.54.043.27.023.269.022.268.024.27.024.268.026.268.024.268.026.267.026.267.028.268.028.267.028.266.028.533.06.266.03.531.062.53.066.264.033.528.068.263.036.264.034.525.074.525.074.262.038.523.079.261.04.261.04.52.084.26.041.519.086.259.044.517.09.515.091.514.093.513.096.257.05.255.048.511.1.255.052.509.103.253.052.507.106.254.054.252.056.251.054.253.056.503.112.25.058.501.116.25.058.249.06.25.06.497.12.248.062.248.061.247.063.247.063.247.063.247.064.245.065.245.065.491.131.244.066.246.067.243.068.243.068.243.068.244.07.242.069.242.07.241.07.483.143.24.071.48.145.24.074.477.148.476.15.237.077.238.076.236.076.473.156.47.157.47.16.234.08.233.08.233.082.233.08.464.165.232.084.231.084.461.168.23.085.229.086.23.086.228.086.229.087.455.175.227.088.452.178.226.09.225.09.225.09.449.183.223.092.446.185.445.187.22.095.442.19.44.191.22.096.218.097.218.098.218.098.218.098.217.099.215.099.217.1.216.1.214.1.43.202.427.204.212.103.425.206.423.208.21.106.42.21.209.107.208.106.208.107.208.108.208.107.412.217.206.109.206.11.408.22.204.11.407.223.403.225.202.112.201.114.2.113.2.115.2.114.198.115.397.23.197.117.394.233.39.235.39.238.193.118.194.12.192.12.384.24.191.121.19.12.19.122.19.123.379.245.187.123.375.248.187.124.185.125.555.377.183.125.184.127.183.128.364.254.36.258.18.129.18.13.18.13.355.259.177.13.176.133.176.132.176.13.176.133.521.399.345.269.171.134.342.27.339.271.169.136.335.274.167.138.167.137.165.138.165.139.165.139.164.138.164.14.487.42.321.282.479.426.157.142.158.144.313.286.31.288.31.29.153.145.152.145.152.147.303.292.3.294.149.147.296.297.293.297.147.15.145.149.432.45.142.15.143.152.281.304.141.15.14.153.276.307.138.153.137.153.136.154.136.154.27.309.134.155.133.155.132.157.131.155.132.156.13.158.13.156.13.158.128.157.128.158.127.158.127.158.125.159.25.319.247.318.123.16.121.16.12.162.122.16.239.323.118.162.235.325.117.162.115.163.23.327.113.163.113.165.113.165.111.164.11.166.11.164.11.165.217.332.214.333.106.167.21.334.207.335.102.169.101.167.101.17.2.337.1.17.097.17.098.17.097.169.285.512.094.172.093.17.092.173.092.172.091.172.09.172.09.173.176.346.174.347.17.348.084.174.083.174.084.175.082.176.08.175.081.175.08.176.078.176.08.177.077.175.075.177.077.177.075.177.074.178.147.355.144.356.07.179.07.179.137.358.067.178.067.18.131.36.065.18.126.362.123.362.12.361.117.364.057.182.057.183.056.182.055.183.054.183.053.183.052.183.053.184.05.184.05.184.099.368.048.185.046.184.047.185.045.186.088.37.043.186.042.186.081.372.04.186.038.187.039.187.037.187.071.374.035.187.034.188.065.376.03.188.031.19.03.187.029.19.028.188.027.189.027.19.025.189.025.189.023.19.045.38.022.19.02.191.02.19.018.19.035.383.016.191.015.191.015.192.013.191.024.385.02.384.011.193.008.192.015.387.005.193.008.386.003.193.003.195V383.559l-.006.387-.008.386-.005.193-.015.386-.008.193-.01.193-.02.384-.013.192-.012.191-.013.193-.015.192-.015.19-.016.192-.018.191-.017.19-.019.191-.019.191-.02.19-.022.19-.045.38-.023.191-.025.189-.025.19-.027.19-.027.188-.028.19-.029.187-.03.189-.03.189-.03.188-.066.376-.034.187-.035.188-.035.187-.036.188-.037.186-.039.187-.038.186-.04.187-.081.372-.042.186-.043.186-.044.185-.044.186-.045.185-.047.184-.046.185-.048.185-.098.368-.05.184-.051.184-.053.183-.052.184-.053.183-.054.183-.055.182-.056.183-.057.182-.057.182-.116.363-.06.182-.06.181-.062.182-.062.18-.126.362-.065.18-.13.36-.068.178-.067.18-.137.358-.07.179-.07.179-.144.355-.147.356-.074.177-.075.178-.077.177-.075.176-.078.177-.157.352-.08.176-.08.175-.081.175-.082.175-.084.176-.083.175-.084.173-.086.174-.084.174-.174.347-.088.173-.178.345-.09.173-.09.172-.185.343-.093.172-.094.172-.19.341-.095.17-.097.17-.098.17-.097.17-.1.17-.1.17-.1.168-.1.168-.102.168-.102.169-.207.335-.105.166-.105.168-.106.167-.214.333-.217.331-.11.166-.11.165-.11.165-.111.164-.113.165-.227.327-.229.327-.115.164-.117.162-.117.163-.118.161-.118.163-.24.323-.24.32-.122.162-.123.16-.124.159-.123.16-.125.159-.125.16-.125.158-.254.316-.128.158-.128.157-.26.315-.13.156-.132.157-.13.155-.133.156-.133.156-.134.154-.135.156-.135.154-.272.309-.137.153-.138.152-.138.153-.278.305-.14.152-.14.153-.142.15-.143.152-.142.15-.432.451-.145.15-.293.298-.147.148-.296.296-.299.295-.15.146-.151.147-.152.146-.152.146-.152.145-.153.146-.31.29-.155.144-.155.143-.156.144-.157.143-.158.143-.157.142-.16.144-.16.14-.159.143-.32.282-.488.42-.164.14-.164.139-.165.138-.165.139-.165.138-.167.138-.335.274-.167.136-.17.137-.169.136-.17.134-.17.136-.17.135-.344.268-.173.134-.174.134-.347.266-.176.131-.176.133-.176.131-.176.132-.177.13-.178.13-.178.131-.179.13-.36.258-.18.129-.18.128-.182.128-.182.127-.183.127-.184.127-.183.126-.185.127-.185.124-.185.126-.185.125-.187.124-.187.124-.188.124-.187.123-.19.123-.188.122-.19.123-.19.121-.19.12-.192.122-.192.121-.192.12-.192.12-.194.119-.194.12-.195.118-.194.117-.39.235-.198.117-.196.117-.197.116-.397.231-.198.115-.2.114-.2.114-.2.114-.201.113-.202.113-.202.112-.201.113-.407.222-.204.11-.204.111-.204.11-.206.11-.206.108-.207.11-.205.108-.208.107-.208.108-.208.107-.208.106-.21.107-.21.105-.209.106-.21.104-.423.209-.212.103-.213.103-.212.103-.427.204-.43.202-.214.1-.216.1-.217.1-.215.099-.217.1-.218.097-.218.098-.218.097-.438.195-.22.095-.22.096-.22.095-.222.094-.22.095-.223.094-.222.093-.223.093-.223.092-.223.092-.224.09-.225.093-.45.18-.226.09-.227.09-.225.087-.227.088-.228.09-.227.086-.23.087-.227.086-.23.086-.229.086-.46.17-.462.167-.696.248-.233.082-.466.162-.234.08-.47.159-.47.157-.473.155-.236.077-.238.076-.237.076-.238.076-.476.15-.24.073-.239.072-.24.074-.24.073-.24.071-.241.072-.483.14-.242.071-.242.07-.244.068-.243.07-.486.135-.246.066-.244.066-.245.067-.246.065-.49.13-.247.063-.247.064-.742.187-.497.123-.248.059-.25.06-.25.06-.249.058-.25.059-.501.114-.503.113-.253.056-.251.055-.252.054-.254.055-.507.106-.253.052-.51.104-.254.05-.51.1-.256.05-.257.048-.256.049-.257.047-.257.048-.772.138-.259.044-.258.045-.259.044-.52.085-.259.042-.26.042-.26.041-.26.041-.524.08-.26.038-.263.038-.262.038-.525.074-.263.036-.264.035-.527.07-.264.034-.264.033-.265.033-.265.032-.531.063-.266.03-.266.03-.267.029-.266.03-.267.027-.268.028-.267.027-.267.026-.268.026-.268.026-.269.025-.269.023-.268.025-.27.022-.269.023-.54.043-.541.04-.542.04-.27.018-.545.034-.27.017-.273.016-.273.015-.272.015-.546.028-.274.013-.274.013-.822.034-.824.027-.275.008-.276.008-.275.007-.276.007-.276.005-.277.005-.276.005-.277.004-.554.006-.278.002-.555.003h-.556l-.555-.003-.277-.002-.278-.003-.277-.003-.277-.004-.276-.005-.277-.005-.276-.005-.275-.007-.552-.015-.275-.008-.824-.027-.822-.034-.274-.013-.273-.013-.274-.014-.272-.014-.273-.015-.273-.015-.543-.033-.544-.034-.27-.019-.543-.039-.27-.02-.27-.02-.271-.022-.269-.021-.27-.023-.269-.022-.27-.025-.267-.023-.27-.025-.268-.026-.268-.026-.267-.026-.267-.027-.268-.028-.267-.027-.266-.03-.266-.029-.267-.03-.266-.03-.265-.032-.265-.031-.266-.032-.264-.033-.264-.033-.265-.034-.527-.07-.263-.035-.264-.036-.261-.037-.263-.037-.263-.038-.261-.038-.262-.038-.262-.04-.26-.04-.521-.082-.261-.042-.259-.042-.519-.085-.26-.044-.257-.045-.259-.044-.257-.046-.259-.046-.256-.046-.258-.048-.256-.047-.257-.05-.256-.047-.256-.05-.511-.1-.255-.05-.254-.052-.254-.052-.254-.052-.507-.106-.505-.109-.252-.055-.253-.056-.25-.056-.252-.057-.25-.057-.251-.057-.25-.06-.25-.058-.25-.059-.249-.06-.25-.06-.496-.122-.495-.125-.246-.062-.247-.064-.493-.128-.245-.065-.246-.065-.245-.067-.489-.132-.244-.068-.243-.067-.243-.07-.243-.068-.242-.07-.242-.07-.241-.07-.242-.071-.24-.072-.242-.071-.24-.073-.24-.074-.24-.072-.238-.074-.239-.074-.238-.075-.238-.076-.237-.076-.237-.076-.237-.077-.473-.155-.47-.157-.235-.08-.468-.16-.234-.08-.233-.081-.232-.082-.233-.083-.464-.165-.231-.084-.23-.084-.231-.085-.23-.084-.687-.258-.456-.174-.228-.089-.226-.088-.226-.087-.227-.09-.226-.09-.45-.18-.224-.092-.223-.091-.225-.092-.223-.092-.223-.093-.222-.093-.222-.094-.221-.095-.221-.094-.22-.095-.22-.096-.22-.095-.22-.098-.219-.097-.218-.097-.435-.196-.65-.297-.216-.1-.214-.1-.43-.203-.213-.102-.213-.102-.213-.103-.213-.103-.211-.103-.212-.104-.421-.209-.21-.106-.21-.105-.417-.213-.209-.107-.415-.215-.206-.108-.207-.11-.206-.108-.204-.11-.206-.11-.204-.11-.204-.11-.203-.112-.202-.111-.405-.225-.202-.113-.4-.227-.2-.114-.2-.114-.198-.115-.2-.115-.197-.116-.394-.233-.196-.117-.197-.117-.195-.118-.194-.117-.194-.119-.194-.12-.194-.118-.193-.12-.192-.12-.192-.12-.19-.122-.191-.12-.19-.122-.19-.123-.189-.122-.189-.123-.188-.123-.187-.124-.188-.124-.186-.124-.186-.125-.185-.126-.185-.124-.184-.127-.184-.126-.183-.127-.183-.127-.182-.127-.182-.128-.361-.257-.18-.129-.18-.129-.178-.13-.179-.13-.178-.13-.177-.131-.176-.132-.176-.13-.176-.134-.175-.131-.174-.133-.174-.133-.174-.134-.172-.134-.172-.134-.171-.134-.172-.135-.17-.136-.17-.134-.17-.136-.168-.137-.168-.136-.168-.137-.166-.137-.167-.138-.165-.138-.166-.14-.165-.137-.164-.14-.164-.14-.325-.28-.161-.14-.162-.14-.16-.141-.16-.142-.159-.141-.158-.144-.159-.142-.315-.286-.155-.144-.156-.143-.156-.144-.308-.29-.153-.146-.153-.145-.152-.146-.152-.146-.15-.147-.15-.146-.15-.147-.15-.148-.148-.148-.294-.296-.146-.15-.147-.149-.146-.149-.288-.3-.286-.3-.142-.152-.141-.151-.282-.305-.14-.152-.137-.153-.14-.153-.137-.152-.137-.153-.272-.31-.135-.153-.134-.156-.134-.154-.133-.156-.132-.156-.132-.155-.132-.157-.13-.156-.26-.315-.127-.157-.129-.158-.254-.316-.125-.159-.125-.16-.125-.158-.123-.16-.246-.32-.122-.16-.241-.321-.12-.162-.119-.161-.118-.163-.119-.161-.117-.163-.116-.162-.23-.328-.115-.163-.227-.327-.334-.494-.11-.165-.11-.166-.217-.331-.107-.167-.213-.333-.105-.168-.104-.166-.104-.168-.104-.167-.102-.169-.101-.168-.101-.168-.1-.169-.1-.17-.295-.509-.096-.17-.096-.17-.19-.341-.28-.515-.091-.172-.09-.172-.18-.345-.088-.173-.089-.173-.174-.347-.084-.174-.086-.174-.084-.173-.083-.175-.083-.176-.163-.35-.08-.175-.08-.176-.08-.176-.077-.176-.078-.177-.076-.176-.076-.177-.076-.178-.073-.177-.075-.178-.072-.178-.143-.355-.142-.358-.136-.358-.068-.18-.066-.178-.067-.18-.065-.18-.065-.18-.063-.181-.062-.18-.063-.18-.061-.183-.06-.18-.06-.183-.117-.363-.057-.182-.057-.182-.056-.183-.054-.182-.054-.183-.053-.183-.053-.184-.051-.183-.103-.368-.049-.184-.048-.184-.048-.185-.047-.185-.046-.184-.045-.185-.045-.186-.044-.185-.042-.186-.043-.186-.081-.372-.04-.187-.038-.186-.038-.187-.038-.186-.035-.188-.036-.187-.035-.188-.034-.187-.032-.188-.064-.376-.03-.19-.03-.188-.029-.188-.055-.378-.025-.19-.052-.378-.023-.19-.045-.38-.02-.19-.022-.19-.02-.192-.018-.19-.017-.19-.017-.192-.017-.191-.015-.191-.014-.192-.014-.193-.012-.19-.012-.193-.02-.384-.01-.193-.008-.193-.008-.193-.006-.193-.01-.386-.005-.193-.003-.194-.002-.193-.002-.388.002-.387.002-.195.003-.193.004-.193.01-.386.007-.194.008-.193.008-.192.01-.193.02-.384.024-.385.014-.19.014-.193.015-.191.017-.191.034-.382.019-.19.02-.19.02-.192.021-.19.045-.38.023-.19.052-.378.025-.19.028-.19.027-.188.029-.189.03-.188.03-.189.064-.376.032-.188.034-.188.035-.187.071-.374.076-.374.039-.187.039-.186.081-.372.043-.186.042-.186.044-.185.045-.185.045-.186.046-.185.047-.184.048-.185.048-.184.05-.184.153-.552.106-.366.108-.366.056-.182.057-.183.057-.182.116-.364.121-.361.061-.181.125-.362.063-.181.065-.18.065-.18.133-.36.068-.178.136-.358.142-.358.143-.356.072-.177.075-.178.073-.178.152-.354.076-.177.078-.175.078-.177.078-.176.081-.176.08-.175.163-.351.083-.175.083-.174.084-.174.086-.174.084-.174.174-.347.09-.173.087-.173.18-.345.09-.172.092-.172.093-.173.093-.17.093-.172.19-.341.096-.171.096-.17.294-.509.2-.337.102-.17.101-.167.102-.169.104-.167.208-.336.105-.166.213-.333.107-.167.109-.166.108-.166.11-.165.11-.164.111-.166.223-.329.113-.165.114-.163.114-.164.116-.163.23-.325.118-.163.119-.162.237-.323.12-.162.12-.16.12-.162.123-.16.123-.16.123-.159.123-.16.25-.318.125-.159.127-.158.127-.158.129-.158.128-.157.13-.158.13-.156.129-.158.132-.156.132-.155.132-.157.133-.155.134-.155.134-.155.135-.154.136-.154.136-.154.137-.153.138-.153.139-.154.138-.153.139-.152.282-.303.141-.152.142-.151.286-.3.288-.301.146-.15.293-.297.147-.15.147-.147.148-.149.15-.147.15-.147.15-.147.302-.292.152-.147.153-.145.153-.145.308-.29.156-.144.156-.144.155-.143.315-.287.317-.284.16-.142.16-.142.16-.14.16-.142.162-.14.325-.28.164-.14.164-.138.165-.139.166-.139.165-.138.167-.137.166-.138.336-.274.168-.136.17-.136.17-.136.17-.135.172-.134.17-.134.173-.135.172-.134.348-.266.35-.266.175-.13.176-.132.176-.132.177-.131.178-.13.537-.39.18-.128.361-.258.182-.126.182-.128.183-.128.183-.127.368-.251.37-.251.186-.125.186-.124.188-.124.187-.124.188-.123.19-.122.187-.123.19-.123.19-.121.192-.12.19-.123.192-.12.192-.12.387-.239.582-.356.195-.117.197-.118.196-.116.394-.233.198-.116.199-.115.198-.115.2-.114.2-.115.4-.227.202-.112.405-.225.202-.111.203-.112.204-.11.204-.11.206-.11.204-.11.206-.11.413-.216.415-.215.209-.107.417-.213.21-.105.42-.21.211-.105.212-.104.211-.103.213-.103.213-.103.213-.102.213-.102.43-.202.214-.1.216-.1.65-.298.435-.196.218-.098.219-.097.66-.288.22-.095.22-.094.222-.095.222-.093.222-.094.223-.092.223-.093.225-.092.223-.091.224-.092.225-.09.225-.09.226-.09.227-.089.226-.089.226-.088.456-.175.228-.087.687-.258.23-.085.231-.084.23-.084.231-.084.232-.084.232-.082.233-.082.232-.081.233-.082.234-.08.468-.16.235-.08.47-.157.473-.156.237-.076.237-.076.237-.077.238-.074.238-.076.24-.073.238-.075.24-.074.239-.072.24-.073.241-.071.24-.072.243-.071.241-.07.242-.07.485-.14.243-.067.243-.068.489-.135.244-.066.245-.066.246-.065.245-.065.246-.065.247-.064.247-.063.246-.063.248-.063.247-.061.248-.061.249-.06.498-.121.25-.06.25-.058.25-.058.251-.058.25-.058.252-.056.25-.056.253-.056.252-.054.253-.056.252-.054.507-.106.254-.052.254-.052.509-.103.511-.1.256-.049.256-.049.513-.096.258-.046.256-.047.259-.046.257-.045.259-.045.257-.045.26-.044.52-.086.258-.041.26-.042.522-.082.26-.04.262-.039.262-.04.261-.038.263-.037.263-.037.261-.037.264-.037.263-.034.263-.036.264-.034.265-.034.264-.033.264-.033.266-.033.265-.03.265-.031.266-.032.267-.03.266-.03.266-.027.267-.028.268-.028.267-.028.267-.026.268-.026.268-.024.27-.026.268-.024.27-.024.268-.022.27-.023.269-.021.27-.022.27-.02.271-.02.542-.04.271-.018.544-.035.543-.032.546-.03.272-.014.274-.014.273-.013.548-.024.274-.012.274-.01.275-.01.55-.018.274-.009.276-.008.276-.007.275-.005.276-.006.277-.005.276-.005.277-.004.277-.004.278-.003.277-.002.833-.003zm-.27 3.112h-.272l-.541.005-.54.006-.54.008-.27.005-.268.005-.27.007-.268.006-.269.008-.269.009-.267.008-.536.018-.268.012-.266.01-.267.011-.534.025-.265.014-.267.013-.266.014-.266.016-.264.015-.266.016-.265.018-.265.016-.263.019-.265.018-.264.018-.263.02-.264.02-.263.022-.262.02-.526.045-.262.024-.261.022-.263.025-.26.024-.262.026-.26.025-.522.053-.52.056-.259.028-.258.03-.26.03-.517.06-.258.032-.258.031-.257.033-.257.034-.258.032-.256.035-.257.034-.255.036-.257.035-.255.036-.255.037-.256.038-.508.075-.255.04-.507.079-.253.04-.505.083-.253.043-.252.041-.252.044-.252.044-.25.044-.252.044-.25.046-.5.092-.499.094-.248.048-.745.147-.495.1-.247.052-.74.156-.49.106-.245.056-.244.054-.489.11-.243.056-.245.057-.484.114-.243.06-.241.058-.243.058-.482.12-.24.06-.24.062-.24.061-.24.063-.238.062-.478.127-.237.064-.239.065-.474.13-.236.066-.237.066-.235.068-.236.067-.235.069-.234.067-.235.07-.233.07-.235.069-.466.14-.233.072-.232.072-.23.072-.233.073-.462.147-.229.074-.23.074-.23.076-.228.076-.228.075-.23.077-.227.076-.68.233-.227.08-.226.079-.226.08-.224.08-.225.081-.224.08-.224.083-.223.081-.668.249-.222.084-.441.17-.221.083-.22.087-.44.172-.217.087-.219.087-.435.176-.217.088-.217.09-.216.089-.216.09-.215.09-.215.09-.215.093-.214.09-.213.093-.213.093-.213.093-.212.093-.211.094-.212.095-.21.094-.211.095-.21.096-.21.096-.209.095-.208.098-.209.097-.207.097-.208.099-.206.098-.207.099-.205.099-.205.1-.614.3-.203.102-.204.102-.202.102-.201.102-.203.104-.2.104-.402.206-.598.316-.197.105-.198.107-.197.106-.197.107-.196.107-.196.108-.39.217-.195.108-.193.11-.386.22-.192.11-.191.11-.193.111-.19.113-.19.111-.19.113-.19.112-.564.34-.374.23-.186.114-.37.23-.185.117-.368.233-.183.118-.182.116-.364.237-.18.119-.18.119-.182.12-.357.238-.356.242-.178.121-.176.122-.177.12-.175.123-.175.123-.174.122-.175.123-.173.124-.172.123-.173.125-.343.25-.17.124-.17.126-.17.127-.169.125-.169.127-.167.127-.167.126-.167.13-.166.126-.331.258-.164.128-.164.13-.164.129-.162.13-.162.13-.161.13-.162.131-.16.131-.16.132-.159.132-.158.133-.159.131-.315.266-.156.134-.155.133-.156.135-.154.134-.154.135-.307.27-.152.135-.152.135-.15.137-.151.136-.15.137-.149.137-.149.137-.148.138-.147.138-.147.139-.146.138-.436.417-.43.42-.14.141-.142.141-.14.141-.141.141-.278.284-.276.285-.137.143-.136.143-.137.144-.135.143-.268.288-.133.144-.133.145-.263.29-.131.146-.26.292-.128.146-.128.147-.128.147-.127.147-.125.148-.126.147-.126.148-.124.149-.124.148-.123.148-.123.15-.12.148-.122.15-.12.15-.12.15-.12.15-.118.15-.118.15-.35.455-.114.15-.114.153-.115.151-.112.154-.113.152-.112.153-.111.153-.221.306-.108.155-.11.154-.214.309-.107.154-.106.155-.105.156-.104.155-.207.31-.102.157-.102.157-.102.157-.2.313-.098.157-.1.157-.096.158-.097.158-.096.158-.096.158-.096.16-.094.157-.094.16-.092.159-.093.16-.182.318-.09.16-.088.16-.09.16-.087.16-.087.161-.087.162-.086.16-.086.163-.083.16-.084.163-.083.161-.083.163-.082.162-.08.163-.16.325-.078.163-.156.327-.077.164-.075.164-.076.164-.074.164-.148.329-.072.164-.072.166-.14.331-.07.165-.069.166-.135.331-.132.334-.065.166-.064.168-.127.333-.062.168-.123.335-.06.167-.059.169-.058.168-.058.168-.169.506-.054.17-.055.169-.053.17-.104.339-.052.17-.05.17-.05.17-.144.512-.092.341-.09.343-.043.172-.043.17-.042.172-.04.173-.041.172-.04.173-.078.345-.038.173-.036.173-.035.172-.036.174-.035.174-.033.174-.033.173-.064.348-.03.174-.03.174-.057.35-.028.175-.026.174-.026.176-.025.175-.025.175-.023.176-.045.351-.022.176-.02.177-.02.176-.036.353-.018.177-.016.177-.016.177-.015.177-.014.177-.013.178-.025.356-.02.356-.01.177-.016.358-.007.178-.006.179-.005.18-.009.357-.003.18-.002.18V383.53l.002.18.003.178.009.358.005.179.006.18.007.179.008.178.008.178.01.178.01.178.01.179.012.177.013.178.013.177.014.178.03.354.017.177.018.177.036.352.02.177.02.176.022.177.045.351.023.176.05.35.026.175.026.175.028.175.057.35.03.173.03.175.032.174.032.175.033.173.033.173.035.174.036.174.035.172.036.173.038.173.078.345.04.173.081.343.042.173.043.172.043.17.045.172.045.17.046.173.046.17.144.512.05.17.05.17.052.17.104.34.053.17.055.168.054.17.169.506.058.168.058.168.06.168.059.168.123.335.062.168.127.334.129.333.066.167.066.165.068.167.067.166.07.165.068.166.07.166.071.165.072.165.072.165.074.165.074.163.074.166.151.327.077.163.156.327.078.164.16.325.08.162.082.163.083.162.083.162.167.324.086.161.086.16.087.162.087.16.088.161.178.321.09.16.181.319.185.318.094.16.094.158.096.159.192.316.097.158.097.157.099.158.098.157.1.157.1.157.102.156.102.157.102.155.103.156.104.156.104.155.105.156.106.155.107.154.214.309.11.154.108.154.22.307.112.152.112.154.113.152.112.152.23.305.114.151.116.152.117.15.116.152.118.151.118.15.12.15.12.15.12.15.242.299.246.297.124.15.124.147.252.295.125.148.127.146.256.295.128.146.13.146.26.291.264.29.266.29.268.288.135.144.137.143.136.143.137.142.138.143.277.284.139.143.14.14.14.143.143.14.14.14.287.28.143.14.145.14.29.278.147.139.294.276.148.137.15.138.148.137.15.137.15.136.151.137.152.134.152.136.307.27.308.27.156.134.155.133.156.134.315.265.159.133.316.264.16.13.161.133.162.13.161.13.162.131.162.13.164.13.164.128.164.13.331.256.166.129.334.254.167.127.338.253.34.25.17.126.343.25.173.124.172.124.173.123.175.123.174.123.175.123.352.244.176.122.534.361.357.24.181.12.18.118.181.118.182.119.364.235.183.118.368.233.185.116.37.231.186.115.374.228.564.34.38.226.19.112.19.112.193.11.19.111.386.221.386.219.195.108.195.108.391.216.393.215.197.106.395.213.4.21.198.103.401.209.201.103.203.103.201.103.202.102.204.101.203.102.41.202.204.1.41.198.207.1.206.097.208.098.207.097.417.195.209.096.42.192.42.19.213.094.211.093.212.094.213.093.213.093.213.091.214.092.215.092.43.18.216.09.216.09.216.09.218.089.435.175.219.087.218.087.22.087.219.086.22.085.22.086.221.084.221.084.222.084.223.084.222.083.446.163.224.082.224.08.45.162.225.08.452.157.227.079.454.155.228.077.229.077.457.15.46.15.228.075.462.147.232.073.231.072.232.072.466.142.233.07.235.07.233.07.469.137.47.135.236.067.473.132.474.131.239.065.237.064.239.063.477.126.24.062.48.123.24.06.482.12.243.06.24.059.244.058.242.057.242.056.245.057.243.057.244.056.245.055.244.054.245.054.49.107.247.053.493.103.247.051.495.1.248.05.497.098.248.048.499.094.25.046.5.09.251.046.25.043.253.044.252.044.757.126.506.082.507.08.255.038.253.038.511.076.51.073.257.035.255.036.257.035.256.033.258.034.514.066.258.031.258.032.259.03.258.03.26.03.258.03.26.028.52.055.52.054.261.025.262.026.26.024.263.025.26.023.263.024.788.064.264.022.263.019.527.039.528.037.265.017.265.016.266.017.264.015.266.015.266.015.267.014.265.012.534.026.533.022.268.01.803.028.538.015.538.014.269.005.54.01.269.003.27.004.54.004.271.001.271.002h.542l.272-.002h.27l.54-.005.271-.004.269-.003.54-.01.268-.005.27-.007.269-.007.268-.008.269-.007.267-.01.27-.008.266-.01.268-.01.266-.011.268-.011.266-.012.267-.014.267-.012.266-.014.265-.015.531-.03.53-.033.265-.017.264-.019.264-.018.791-.058.264-.022.262-.021.262-.022.263-.021.262-.024.262-.023.523-.05.522-.05.52-.054.52-.055.26-.028.26-.03.517-.06.258-.03.258-.032.258-.031.258-.033.256-.033.258-.034.256-.033.257-.035.257-.036.255-.035.511-.073.256-.038.509-.076.253-.038.254-.04.254-.04.252-.041.254-.04.757-.127.25-.044.253-.044.25-.043.252-.045.25-.045.25-.046.25-.046.499-.094.25-.048.247-.05.248-.048.497-.1.246-.05.247-.05.247-.053.247-.051.245-.053.247-.053.244-.054.49-.108.244-.055.488-.113.244-.057.243-.056.242-.057.242-.058.242-.06.242-.059.241-.06.241-.06.24-.06.48-.123.48-.124.237-.064.24-.063.237-.064.238-.065.474-.13.237-.067.472-.133.47-.135.235-.068.703-.209.232-.07.233-.072.233-.07.232-.072.232-.072.23-.073.463-.147.46-.15.229-.074.457-.151.456-.154.228-.077.227-.078.226-.079.227-.078.226-.08.225-.079.45-.161.223-.081.448-.164.223-.081.222-.083.444-.168.22-.084.223-.084.22-.086.22-.085.219-.086.22-.087.218-.087.218-.087.219-.087.216-.088.218-.09.217-.088.431-.18.216-.091.214-.09.215-.092.214-.092.213-.09.214-.094.212-.093.212-.094.212-.093.211-.094.212-.095.21-.095.42-.192.208-.096.417-.195.207-.097.208-.098.206-.098.207-.099.205-.1.207-.098.204-.1.204-.102.205-.1.203-.102.203-.101.404-.205.403-.206.201-.104.399-.209.2-.105.199-.104.198-.107.394-.212.198-.108.196-.107.195-.107.39-.217.195-.108.194-.11.193-.109.192-.11.193-.11.192-.111.382-.223.19-.112.189-.113.19-.112.188-.114.19-.113.186-.114.188-.114.372-.229.186-.115.185-.116.185-.116.184-.117.183-.116.366-.236.182-.117.182-.119.18-.118.18-.119.36-.239.178-.12.18-.12.177-.12.177-.121.177-.122.176-.123.175-.121.35-.246.174-.123.172-.123.174-.124.344-.249.17-.125.171-.125.17-.125.17-.126.338-.253.167-.127.168-.128.166-.126.166-.13.166-.127.165-.129.164-.129.164-.128.164-.13.162-.13.163-.13.161-.13.16-.131.161-.132.16-.131.16-.132.159-.132.157-.133.158-.132.157-.133.156-.134.156-.133.156-.134.153-.135.154-.135.307-.27.152-.136.152-.134.15-.137.151-.136.15-.137.15-.137.148-.138.148-.137.147-.138.147-.14.147-.137.29-.278.145-.14.143-.14.144-.14.142-.14.283-.28.281-.283.14-.143.14-.142.137-.142.137-.143.137-.142.137-.143.136-.143.27-.288.134-.144.133-.144.132-.146.133-.145.13-.145.131-.146.13-.145.13-.146.129-.146.127-.148.128-.146.127-.147.127-.148.125-.147.125-.149.125-.147.123-.149.123-.148.123-.15.243-.298.12-.15.119-.15.12-.15.118-.15.118-.151.116-.151.118-.15.115-.153.116-.151.114-.152.227-.305.113-.152.11-.154.112-.152.11-.153.111-.154.11-.154.108-.154.322-.463.21-.31.209-.312.102-.156.103-.155.203-.313.1-.157.1-.157.1-.157.195-.315.097-.158.097-.158.285-.475.186-.319.092-.16.182-.318.09-.16.09-.16.088-.16.087-.161.088-.16.086-.162.086-.16.086-.162.084-.162.084-.162.083-.162.164-.325.08-.162.08-.163.08-.162.08-.164.155-.327.076-.163.076-.164.075-.163.074-.166.074-.163.074-.165.072-.165.072-.165.07-.166.07-.164.07-.167.137-.33.067-.168.067-.165.066-.167.064-.166.065-.167.064-.168.063-.166.184-.503.06-.168.059-.168.059-.168.114-.337.057-.169.055-.168.055-.17.054-.169.053-.17.105-.339.05-.17.05-.17.05-.17.05-.17.048-.171.094-.341.045-.172.045-.17.045-.173.043-.17.044-.172.042-.173.081-.343.04-.173.04-.173.075-.345.037-.173.035-.172.036-.174.034-.174.034-.173.032-.173.032-.175.032-.174.03-.175.03-.174.03-.174.055-.35.053-.35.024-.175.025-.175.047-.352.021-.175.022-.177.02-.176.02-.177.018-.176.019-.176.017-.177.016-.177.016-.177.016-.177.027-.355.012-.178.012-.177.01-.179.02-.356.009-.178.007-.178.007-.18.006-.179.01-.358.007-.357.002-.18.002-.36-.002-.359-.002-.18-.006-.358-.006-.18-.005-.18-.006-.178-.007-.179-.007-.178-.008-.179-.03-.533-.025-.356-.014-.178-.013-.177-.016-.177-.016-.177-.016-.177-.017-.177-.037-.353-.02-.176-.02-.177-.043-.352-.047-.351-.025-.175-.024-.176-.053-.35-.055-.349-.06-.35-.03-.173-.064-.348-.032-.173-.068-.348-.036-.174-.035-.172-.037-.173-.076-.346-.039-.172-.04-.173-.04-.172-.041-.173-.042-.17-.044-.172-.043-.172-.09-.343-.045-.17-.094-.342-.048-.17-.05-.171-.05-.17-.05-.17-.05-.17-.105-.34-.053-.17-.054-.168-.055-.17-.055-.168-.057-.17-.057-.168-.057-.167-.119-.338-.059-.167-.184-.503-.127-.333-.065-.168-.064-.166-.066-.167-.067-.167-.067-.165-.068-.166-.069-.166-.07-.165-.14-.331-.072-.166-.072-.164-.148-.33-.074-.163-.075-.164-.076-.164-.076-.164-.155-.327-.08-.163-.08-.163-.08-.162-.08-.163-.164-.325-.083-.161-.084-.163-.084-.16-.086-.163-.086-.16-.086-.162-.088-.16-.087-.16-.089-.161-.09-.16-.09-.16-.181-.319-.092-.16-.186-.318-.095-.158-.095-.159-.095-.158-.097-.158-.097-.158-.196-.315-.099-.157-.1-.157-.1-.156-.102-.158-.1-.156-.104-.156-.102-.156-.209-.31-.21-.311-.322-.463-.109-.154-.109-.155-.22-.306-.112-.153-.111-.153-.113-.153-.113-.153-.114-.15-.114-.153-.231-.303-.118-.15-.116-.152-.118-.15-.118-.15-.12-.152-.12-.15-.12-.15-.242-.298-.123-.15-.123-.147-.123-.148-.25-.297-.125-.147-.127-.148-.127-.147-.128-.147-.127-.147-.13-.146-.259-.292-.261-.29-.133-.146-.132-.145-.133-.144-.134-.144-.135-.144-.135-.143-.136-.144-.274-.286-.137-.143-.138-.142-.14-.142-.139-.142-.14-.14-.282-.283-.142-.14-.142-.14-.144-.141-.143-.14-.435-.417-.147-.138-.147-.139-.147-.138-.148-.138-.148-.137-.15-.137-.15-.137-.15-.136-.151-.137-.152-.135-.152-.136-.307-.27-.154-.134-.153-.134-.156-.134-.312-.268-.157-.133-.158-.133-.157-.131-.16-.133-.158-.132-.16-.132-.322-.262-.161-.13-.163-.13-.162-.13-.164-.13-.164-.129-.164-.128-.331-.258-.166-.127-.166-.129-.335-.253-.17-.127-.168-.125-.17-.127-.17-.126-.17-.125-.515-.374-.174-.123-.172-.124-.174-.123-.35-.245-.175-.123-.176-.12-.354-.243-.178-.121-.179-.12-.177-.12-.36-.24-.181-.118-.18-.119-.364-.237-.183-.116-.183-.118-.183-.116-.184-.117-.185-.116-.185-.116-.186-.115-.372-.23-.188-.114-.187-.113-.189-.114-.188-.113-.19-.112-.19-.113-.19-.111-.19-.113-.191-.11-.192-.111-.193-.11-.192-.11-.193-.11-.194-.11-.194-.108-.586-.325-.196-.107-.198-.107-.394-.213-.198-.105-.598-.316-.2-.103-.201-.103-.201-.104-.202-.103-.202-.103-.405-.204-.203-.101-.613-.3-.207-.101-.205-.1-.207-.098-.206-.098-.208-.099-.207-.097-.209-.097-.208-.098-.209-.095-.419-.192-.21-.095-.212-.094-.211-.095-.212-.094-.212-.093-.212-.093-.214-.093-.213-.092-.214-.091-.215-.092-.214-.09-.216-.091-.216-.09-.215-.089-.218-.09-.433-.176-.219-.088-.218-.087-.218-.087-.44-.172-.22-.087-.22-.084-.221-.085-.221-.084-.222-.084-.222-.083-.445-.166-.448-.163-.224-.08-.225-.082-.224-.08-.225-.08-.226-.079-.227-.08-.226-.077-.227-.078-.228-.078-.456-.153-.686-.227-.23-.074-.23-.074-.462-.147-.231-.073-.232-.072-.232-.072-.233-.071-.233-.07-.232-.071-.703-.209-.235-.067-.235-.069-.235-.067-.236-.068-.236-.066-.711-.196-.238-.065-.238-.064-.239-.064-.238-.063-.478-.125-.48-.122-.24-.06-.483-.121-.242-.058-.242-.059-.242-.059-.242-.057-.243-.057-.244-.057-.244-.056-.244-.055-.243-.055-.246-.054-.245-.056-.49-.106-.246-.052-.247-.052-.247-.052-.247-.051-.246-.05-.249-.05-.496-.099-.248-.049-.249-.048-.499-.094-.25-.046-.25-.046-.25-.046-.251-.044-.25-.044-.253-.044-.25-.044-.253-.041-.253-.043-.252-.041-.254-.041-.252-.041-.254-.04-.254-.04-.253-.039-.256-.037-.253-.038-.256-.038-.255-.037-.511-.071-.257-.036-.257-.034-.256-.035-.258-.032-.256-.034-.258-.033-.258-.031-.258-.031-.517-.061-.259-.03-.26-.03-.259-.028-.52-.056-.52-.053-.522-.05-.523-.05-.262-.022-.262-.024-.263-.022-.262-.023-.262-.02-.264-.022-.264-.02-.263-.02-.528-.036-.264-.019-.265-.016-.265-.018-.265-.016-.531-.03-.266-.015-.265-.013-.267-.014-.267-.013-.266-.012-.266-.011-.268-.01-.268-.012-.267-.009-.269-.01-.267-.007-.27-.01-.267-.007-.27-.006-.269-.007-.268-.005-.27-.005-.27-.004-.269-.004-.27-.003-.27-.003-.541-.005H510.418z" />
    <g transform="translate(248.507 -25.3) scale(1.03363)">
        <clipPath id="prefix__c">
            <path d="M414.992 334.313h154.795v116.531H414.992z" />
        </clipPath>
        <g clip-path="url(#prefix__c)">
            <path stroke="#000" stroke-width="3.47" stroke-linecap="butt" stroke-linejoin="miter"
                d="M414.992 334.313h154.795v116.096H414.992z" />
        </g>
    </g>
    <path
        d="M117.022 66.696c-3.536 0-6.07.355-7.6 1.066-1.531.71-2.48 1.759-2.844 3.145-.365 1.385-.547 3.646-.547 6.78v58.79h-5.032L52.491 78.836v40.852c0 3.099.192 5.35.575 6.754.382 1.403 1.357 2.479 2.925 3.226 1.569.748 4.102 1.12 7.602 1.12v5.033H36.03v-5.032c3.282 0 5.66-.373 7.137-1.121 1.477-.747 2.388-1.823 2.734-3.226.347-1.404.52-3.655.52-6.754V81.844c0-3.062-.081-5.36-.245-6.89-.165-1.532-.557-2.872-1.177-4.02-.62-1.148-1.632-2.078-3.035-2.79-1.404-.71-3.345-1.193-5.824-1.448v-5.032h21.601l42.22 49.875V77.688c0-2.771-.192-4.895-.575-6.371-.382-1.477-1.33-2.616-2.843-3.418-1.514-.802-3.91-1.203-7.192-1.203v-5.032h27.671v5.032zm54.962 45.062h-33.632c.036.693.136 2.17.3 4.43.164 2.26.675 4.575 1.532 6.945.856 2.37 2.333 4.366 4.429 5.989 2.097 1.622 4.913 2.433 8.449 2.433 1.933 0 4.266-.492 7-1.476 2.734-.985 5.105-2.881 7.11-5.688l4.265 2.898c-4.303 6.89-11.138 10.336-20.507 10.336-4.194 0-8.012-.601-11.457-1.804-3.447-1.203-6.371-2.88-8.779-5.032-2.405-2.151-4.246-4.684-5.522-7.601-1.276-2.917-1.914-6.052-1.914-9.406 0-4.412 1.066-8.495 3.199-12.25 2.133-3.756 5.186-6.745 9.16-8.97 3.974-2.223 8.513-3.335 13.617-3.335 4.995 0 9.215 1.076 12.66 3.227 3.446 2.15 5.989 4.94 7.629 8.367 1.64 3.427 2.46 7.073 2.46 10.937h.001zm-13.563-5.031c0-8.313-3.28-12.47-9.843-12.47-3.172 0-5.605 1.15-7.302 3.447-1.695 2.296-2.633 5.304-2.815 9.023h19.96zm107.134-10.664c-1.678 0-2.935.182-3.774.547-.839.364-1.577 1.03-2.216 1.996-.637.966-1.54 2.689-2.707 5.168l-16.131 33.85h-4.704l-14.93-29.475-14.546 29.476h-4.703l-15.805-33.742c-1.568-3.39-2.825-5.532-3.773-6.426-.948-.893-2.662-1.358-5.141-1.394v-5.031h28.109v5.03c-.255 0-.493-.008-.712-.026a9.752 9.752 0 00-.82-.028c-2.733 0-4.1.912-4.1 2.735 0 .948.346 2.15 1.038 3.609l8.587 18.484 14.82-29.804h3.883l15.038 29.804 8.04-17.062c1.13-2.552 1.695-4.23 1.695-5.031 0-1.204-.483-1.951-1.45-2.243-.965-.291-2.615-.437-4.948-.437v-5.031h19.25v5.031zm53.539 28.656c-4.412 8.604-11.503 12.906-21.274 12.906-4.558 0-8.868-.93-12.933-2.79-4.065-1.858-7.328-4.556-9.79-8.092-2.46-3.537-3.691-7.675-3.691-12.414 0-3.282.666-6.417 1.995-9.407 1.332-2.99 3.255-5.687 5.77-8.093 2.517-2.407 5.497-4.275 8.942-5.606 3.446-1.331 7.137-1.996 11.075-1.996 5.03 0 9.46.993 13.288 2.98 3.829 1.987 5.743 4.73 5.743 8.23 0 1.605-.602 2.972-1.805 4.102-1.203 1.13-2.588 1.696-4.156 1.696-1.495 0-2.643-.347-3.445-1.04-.803-.692-1.331-1.403-1.587-2.132-.255-.73-.62-2.024-1.094-3.883-.474-1.786-1.257-3.053-2.351-3.801-1.094-.747-2.625-1.121-4.594-1.121-3.317 0-6.262 1.23-8.832 3.692-2.57 2.46-3.856 7.063-3.856 13.808 0 3.61.52 6.927 1.56 9.953 1.038 3.026 2.678 5.424 4.92 7.192 2.244 1.768 4.987 2.652 8.232 2.652 3.608 0 6.361-.893 8.257-2.68 1.897-1.786 3.573-3.882 5.031-6.29l4.594 2.134h.001zm63.436-.437c0 2.77-.564 5.13-1.694 7.082-1.13 1.95-2.652 3.39-4.567 4.32-1.914.93-4.075 1.395-6.48 1.395-3.063 0-5.615-.72-7.656-2.161-2.042-1.44-3.263-3.162-3.664-5.168-6.09 4.886-12.214 7.329-18.375 7.329-3.938 0-7.164-.957-9.68-2.872-2.516-1.914-3.773-4.438-3.773-7.574 0-2.588.673-4.931 2.022-7.027 1.35-2.096 3.327-3.965 5.935-5.606 2.606-1.64 5.714-3.09 9.324-4.347 3.608-1.258 8.111-2.58 13.507-3.965v-3.117c0-2.59-.61-4.621-1.831-6.098-1.223-1.476-3.474-2.215-6.755-2.215-2.808 0-4.83.584-6.07 1.75-1.24 1.167-2.06 2.935-2.462 5.305-.29 1.677-.828 3.053-1.612 4.129-.784 1.075-2.416 1.613-4.894 1.613-1.532 0-2.882-.437-4.048-1.312s-1.75-2.17-1.75-3.883c0-3.391 1.841-6.344 5.524-8.86 3.683-2.515 9.334-3.773 16.952-3.773 8.022 0 13.536 1.349 16.543 4.047 3.009 2.698 4.512 6.307 4.512 10.828v17.28c0 2.189.055 3.793.164 4.814.11 1.02.41 1.795.903 2.324.493.529 1.267.793 2.325.793.947 0 1.776-.492 2.488-1.477.71-.984 1.065-2.17 1.065-3.554h4.048-.001zm-25.1.437v-13.562c-6.928 2.187-11.33 4.329-13.207 6.425-1.878 2.097-2.817 4.148-2.817 6.153 0 1.677.51 3.026 1.531 4.047 1.02 1.02 2.46 1.53 4.32 1.53 2.005 0 3.774-.418 5.305-1.257 1.531-.838 3.154-1.95 4.868-3.336zm75.14-1.914c0 3.136-.938 5.815-2.816 8.039-1.879 2.224-4.449 3.91-7.712 5.059-3.262 1.148-7.026 1.722-11.292 1.722-2.88 0-5.78-.282-8.695-.847-2.918-.565-5.47-1.413-7.657-2.543l-2.132 3.062h-4.267l-.547-14.218h4.595c.801 2.442 2.642 4.639 5.522 6.589 2.882 1.95 7.055 2.926 12.524 2.926 1.385 0 2.88-.1 4.484-.301 1.605-.2 3.146-.756 4.622-1.668 1.476-.911 2.214-2.315 2.214-4.21 0-1.641-.755-2.835-2.269-3.583-1.512-.747-4.347-1.65-8.503-2.707-5.033-1.276-9.151-2.488-12.36-3.636-3.209-1.15-5.924-2.798-8.149-4.95-2.224-2.151-3.335-4.921-3.335-8.312 0-4.302 1.977-7.711 5.933-10.227 3.955-2.515 9.142-3.773 15.558-3.773 4.01 0 7.22.328 9.625.984 2.406.657 4.43 1.368 6.07 2.133l1.314-2.79h4.375v12.689h-4.485c-.401-1.495-1.313-2.862-2.735-4.102-1.421-1.24-3.308-2.197-5.66-2.871-2.351-.675-5.076-1.012-8.175-1.012a36.049 36.049 0 00-7.63.82c-2.534.547-3.8 1.842-3.8 3.883 0 .839.247 1.532.738 2.079.493.546 1.34 1.057 2.543 1.53 1.204.475 3.317 1.095 6.344 1.86 3.026.766 4.83 1.22 5.414 1.367 5.942 1.495 10.82 3.336 14.629 5.524 3.81 2.187 5.714 6.015 5.714 11.484h.001zm43.477 3.281c-1.97 4.12-4.267 7.073-6.892 8.86-2.624 1.786-5.704 2.679-9.241 2.679-4.302 0-7.474-.875-9.516-2.625-2.041-1.75-3.3-3.71-3.774-5.878-.474-2.17-.71-4.603-.71-7.301V96.063h-8.258v-5.031c3.464 0 6.471-.657 9.024-1.97 2.552-1.312 4.565-3.08 6.043-5.304 1.476-2.224 2.414-4.612 2.815-7.164h4.485v14.438h15.476v5.03h-15.476v26.087c0 3.172.21 5.46.628 6.863.42 1.404 1.45 2.106 3.09 2.106 1.75 0 3.19-.684 4.322-2.051 1.13-1.367 2.223-3.072 3.28-5.113l4.704 2.132zm33.96 9.734h-31.445v-5.03h2.351c2.115 0 3.656-.292 4.622-.875.965-.584 1.558-1.404 1.777-2.461.219-1.058.329-2.607.329-4.65V76.212c0-2.625-.612-4.302-1.832-5.031-1.223-.73-3.637-1.094-7.247-1.094v-5.031l23.188-4.703v62.453c0 2.042.1 3.582.3 4.62.2 1.04.784 1.86 1.75 2.462.966.602 2.507.903 4.622.903h1.585v5.03-.001zm55.345-24.062H531.72c.035.693.135 2.17.3 4.43.164 2.26.674 4.575 1.532 6.945.856 2.37 2.332 4.366 4.428 5.989 2.097 1.622 4.913 2.433 8.45 2.433 1.933 0 4.266-.492 7-1.476 2.735-.985 5.105-2.881 7.11-5.688l4.265 2.898c-4.301 6.89-11.137 10.336-20.507 10.336-4.193 0-8.013-.601-11.457-1.804-3.446-1.203-6.371-2.88-8.778-5.032a21.825 21.825 0 01-5.524-7.601c-1.275-2.917-1.913-6.052-1.913-9.406 0-4.412 1.066-8.495 3.198-12.25 2.134-3.756 5.187-6.745 9.16-8.97 3.975-2.223 8.514-3.335 13.619-3.335 4.994 0 9.214 1.076 12.66 3.227 3.445 2.15 5.988 4.94 7.629 8.367 1.64 3.427 2.46 7.073 2.46 10.937zm-13.564-5.031c0-8.313-3.28-12.47-9.843-12.47-3.173 0-5.606 1.15-7.3 3.447-1.697 2.296-2.635 5.304-2.817 9.023h19.96zm104.782 7.82c0 2.297-.493 4.73-1.476 7.3-.986 2.57-2.47 5.032-4.458 7.384-1.986 2.35-4.493 4.266-7.52 5.742-3.025 1.477-6.525 2.215-10.5 2.215-3.937 0-7.846-.857-11.73-2.57-3.882-1.714-7.172-4.266-9.87-7.657-1.167 2.698-1.914 5.196-2.243 7.493h-5.032v-25.375h5.032c.911 3.645 2.17 7.072 3.774 10.28 1.603 3.209 3.874 5.97 6.808 8.286 2.934 2.315 6.535 3.473 10.8 3.473 3.72 0 6.7-1.021 8.942-3.063 2.243-2.042 3.364-4.612 3.364-7.711 0-1.75-.346-3.281-1.04-4.594-.692-1.312-1.695-2.488-3.008-3.527-1.312-1.04-3.107-2.151-5.386-3.336s-4.877-2.433-7.793-3.746c-4.485-2.115-8.167-4.247-11.048-6.398-2.88-2.151-5.058-4.24-6.534-6.262-1.476-2.024-2.498-3.947-3.063-5.77a18.545 18.545 0 01-.848-5.523c0-3.318.894-6.59 2.68-9.816 1.786-3.227 4.402-5.87 7.848-7.93 3.446-2.06 7.428-3.09 11.95-3.09 3.462 0 6.762.775 9.897 2.324a25.361 25.361 0 018.15 6.37c.656-1.53 1.257-3.681 1.804-6.452h5.14v20.672h-5.14c-3.647-11.266-9.99-16.898-19.032-16.898-3.28 0-5.914.866-7.902 2.597-1.986 1.732-2.98 3.965-2.98 6.7 0 2.15.62 4.019 1.86 5.605 1.239 1.586 2.87 2.944 4.894 4.074s5.296 2.753 9.817 4.867c5.468 2.589 9.743 4.83 12.824 6.727a27.702 27.702 0 017.82 7.164c2.133 2.88 3.199 6.362 3.199 10.445zm65.57 9.735c0 2.77-.564 5.13-1.695 7.082-1.13 1.95-2.653 3.39-4.567 4.32-1.913.93-4.074 1.395-6.48 1.395-3.063 0-5.615-.72-7.657-2.161-2.04-1.44-3.262-3.162-3.663-5.168-6.088 4.886-12.213 7.329-18.375 7.329-3.938 0-7.164-.957-9.68-2.872-2.515-1.914-3.774-4.438-3.774-7.574 0-2.588.674-4.931 2.024-7.027 1.348-2.096 3.327-3.965 5.933-5.606 2.607-1.64 5.716-3.09 9.324-4.347 3.61-1.258 8.113-2.58 13.509-3.965v-3.117c0-2.59-.611-4.621-1.832-6.098-1.221-1.476-3.473-2.215-6.755-2.215-2.807 0-4.83.584-6.07 1.75-1.24 1.167-2.06 2.935-2.46 5.305-.293 1.677-.83 3.053-1.614 4.129-.784 1.075-2.415 1.613-4.894 1.613-1.531 0-2.88-.437-4.048-1.312-1.165-.875-1.75-2.17-1.75-3.883 0-3.391 1.841-6.344 5.524-8.86 3.683-2.515 9.334-3.773 16.954-3.773 8.02 0 13.534 1.349 16.542 4.047 3.009 2.698 4.512 6.307 4.512 10.828v17.28c0 2.189.054 3.793.164 4.814.11 1.02.41 1.795.903 2.324.491.529 1.266.793 2.323.793.948 0 1.778-.492 2.489-1.477.71-.984 1.067-2.17 1.067-3.554h4.046zm-25.101.437v-13.562c-6.928 2.187-11.33 4.329-13.207 6.425-1.879 2.097-2.817 4.148-2.817 6.153 0 1.677.51 3.026 1.532 4.047 1.02 1.02 2.46 1.53 4.32 1.53 2.005 0 3.774-.418 5.305-1.257 1.53-.838 3.154-1.95 4.866-3.336h.001zm77.274 0c-4.413 8.604-11.504 12.906-21.274 12.906-4.558 0-8.868-.93-12.934-2.79-4.066-1.858-7.328-4.556-9.79-8.092-2.46-3.537-3.69-7.675-3.69-12.414 0-3.282.664-6.417 1.995-9.407 1.332-2.99 3.255-5.687 5.77-8.093 2.515-2.407 5.496-4.275 8.942-5.606 3.445-1.331 7.137-1.996 11.073-1.996 5.033 0 9.462.993 13.29 2.98 3.827 1.987 5.742 4.73 5.742 8.23 0 1.605-.601 2.972-1.804 4.102-1.204 1.13-2.59 1.696-4.157 1.696-1.495 0-2.644-.347-3.446-1.04-.801-.692-1.33-1.403-1.585-2.132-.255-.73-.62-2.024-1.094-3.883-.473-1.786-1.257-3.053-2.351-3.801-1.095-.747-2.625-1.121-4.595-1.121-3.316 0-6.26 1.23-8.832 3.692-2.57 2.46-3.854 7.063-3.854 13.808 0 3.61.519 6.927 1.558 9.953 1.038 3.026 2.68 5.424 4.921 7.192 2.243 1.768 4.986 2.652 8.231 2.652 3.61 0 6.363-.893 8.258-2.68 1.895-1.786 3.572-3.882 5.032-6.29l4.592 2.134h.002zm52.117-26.851c0 2.114-.647 3.782-1.942 5.004-1.295 1.22-2.817 1.832-4.567 1.832-2.077 0-3.9-1.021-5.469-3.063-.728-.911-1.33-1.568-1.804-1.97-.475-.4-1.149-.6-2.024-.6-2.844 0-5.058 1.54-6.644 4.62-1.586 3.082-2.379 6.28-2.379 9.598v9.516c0 3.063.392 5.159 1.176 6.289.784 1.13 2.852 1.696 6.207 1.696h2.899v5.03H777.92v-5.03h2.844c3.063 0 4.94-.584 5.633-1.75.692-1.167 1.04-3.245 1.04-6.235v-15.97c0-2.441-.247-4.191-.74-5.25-.491-1.056-1.375-1.758-2.651-2.104-1.277-.346-3.318-.52-6.125-.52V93.93l21.327-4.703c.548 1.859 1.058 5.815 1.531 11.867a23.355 23.355 0 014.02-5.906c1.66-1.787 3.519-3.227 5.579-4.32 2.06-1.094 4.164-1.641 6.316-1.641 2.99 0 5.36.839 7.11 2.516s2.625 3.718 2.625 6.125h.001zm52.883 13.89h-33.634c.037.693.137 2.17.3 4.43.165 2.26.675 4.575 1.532 6.945s2.334 4.366 4.43 5.989c2.096 1.622 4.913 2.433 8.45 2.433 1.932 0 4.264-.492 7-1.476 2.734-.985 5.104-2.881 7.109-5.688l4.265 2.898c-4.301 6.89-11.137 10.336-20.507 10.336-4.193 0-8.013-.601-11.457-1.804-3.447-1.203-6.372-2.88-8.779-5.032-2.406-2.151-4.247-4.684-5.523-7.601-1.275-2.917-1.913-6.052-1.913-9.406 0-4.412 1.066-8.495 3.198-12.25 2.134-3.756 5.187-6.745 9.16-8.97 3.975-2.223 8.514-3.335 13.619-3.335 4.994 0 9.214 1.076 12.66 3.227 3.445 2.15 5.988 4.94 7.629 8.367 1.64 3.427 2.46 7.073 2.46 10.937h.001zm-13.563-5.031c0-8.313-3.281-12.47-9.845-12.47-3.171 0-5.604 1.15-7.3 3.447-1.696 2.296-2.635 5.304-2.817 9.023h19.962zm83.616 28.438c-7.728.328-14.784 1.148-21.163 2.46-.51-1.093-.838-3.007-.984-5.742-4.668 3.828-9.79 5.742-15.368 5.742-4.303 0-8.285-1.112-11.95-3.336-3.663-2.223-6.58-5.26-8.75-9.105-2.168-3.846-3.253-8.03-3.253-12.551 0-2.807.473-5.596 1.422-8.367.947-2.771 2.433-5.314 4.457-7.63 2.024-2.314 4.53-4.128 7.52-5.44 2.988-1.313 6.398-1.97 10.226-1.97 2.808 0 5.213.347 7.218 1.04 2.005.693 3.61 1.486 4.813 2.379 1.204.893 2.425 1.96 3.665 3.199V77.907c0-2.443-.202-4.193-.603-5.25-.4-1.058-1.156-1.732-2.269-2.024-1.111-.291-2.925-.474-5.442-.547v-5.031l22.423-4.703v61.25c0 2.625.119 4.448.356 5.469.237 1.02.902 1.759 1.995 2.215 1.094.455 2.99.738 5.688.847v5.032h-.001zM927.22 124.83v-22.15c-1.533-1.858-3.355-3.554-5.47-5.085-2.115-1.531-4.63-2.297-7.547-2.297-1.785 0-3.462.492-5.03 1.477a11.659 11.659 0 00-3.774 3.773c-1.605 2.516-2.407 6.763-2.407 12.742 0 6.053 1.14 10.61 3.418 13.672 2.28 3.063 5.114 4.594 8.505 4.594 2.442 0 4.72-.601 6.836-1.805 2.115-1.203 3.937-2.843 5.469-4.921zm140.98 10.99h-36.48v-5.03c2.99 0 5.25-.33 6.79-.985 1.53-.656 2.51-1.604 2.95-2.844.43-1.24.65-2.88.65-4.921V99.782h-34.39v22.258c0 3.062.63 5.286 1.91 6.67 1.28 1.387 4.19 2.08 8.75 2.08v5.03h-36.75v-5.03c2.952 0 5.203-.33 6.753-.985 1.55-.656 2.552-1.595 3.008-2.816.455-1.222.683-2.871.683-4.95V75.447c0-2.078-.219-3.71-.656-4.895-.438-1.185-1.404-2.123-2.899-2.816-1.494-.693-3.79-1.04-6.89-1.04v-5.03h36.751v5.03c-4.52 0-7.43.675-8.72 2.024-1.3 1.349-1.94 3.59-1.94 6.727V93.71h34.39V75.446c0-2.078-.2-3.71-.6-4.895-.4-1.185-1.35-2.123-2.84-2.816-1.5-.693-3.81-1.04-6.95-1.04v-5.03h36.48v5.03c-3.1 0-5.4.347-6.89 1.04-1.49.693-2.45 1.63-2.87 2.816-.42 1.185-.63 2.817-.63 4.895v46.594c0 2.005.19 3.6.57 4.785.39 1.185 1.34 2.142 2.88 2.87 1.53.73 3.84 1.095 6.94 1.095v5.03zM1131.75 124.282c0 2.77-.57 5.13-1.69 7.082-1.14 1.95-2.66 3.39-4.57 4.32-1.92.93-4.08 1.395-6.48 1.395-3.07 0-5.62-.72-7.66-2.161-2.04-1.44-3.26-3.162-3.66-5.168-6.09 4.886-12.22 7.329-18.38 7.329-3.93 0-7.16-.957-9.68-2.872-2.51-1.914-3.77-4.438-3.77-7.574 0-2.588.67-4.931 2.02-7.027s3.33-3.965 5.94-5.606c2.6-1.64 5.71-3.09 9.32-4.347 3.61-1.258 8.11-2.58 13.51-3.965v-3.117c0-2.59-.61-4.621-1.83-6.098-1.22-1.476-3.48-2.215-6.76-2.215-2.8 0-4.83.584-6.07 1.75-1.24 1.167-2.06 2.935-2.46 5.305-.29 1.677-.83 3.053-1.61 4.129-.79 1.075-2.42 1.613-4.9 1.613-1.53 0-2.88-.437-4.04-1.312-1.17-.875-1.75-2.17-1.75-3.883 0-3.391 1.84-6.344 5.52-8.86 3.68-2.515 9.33-3.773 16.95-3.773 8.02 0 13.54 1.349 16.55 4.047 3 2.698 4.51 6.307 4.51 10.828v17.28c0 2.189.05 3.793.16 4.814.11 1.02.41 1.795.9 2.324.5.529 1.27.793 2.33.793.95 0 1.78-.492 2.49-1.477.71-.984 1.06-2.17 1.06-3.554h4.05zm-25.1.437v-13.562c-6.93 2.187-11.33 4.329-13.21 6.425-1.88 2.097-2.82 4.148-2.82 6.153 0 1.677.51 3.026 1.54 4.047 1.02 1.02 2.46 1.53 4.32 1.53 2 0 3.77-.418 5.3-1.257 1.53-.838 3.15-1.95 4.87-3.336zM1181.13 97.868c0 2.114-.65 3.782-1.94 5.004-1.3 1.22-2.82 1.832-4.57 1.832-2.08 0-3.9-1.021-5.47-3.063-.73-.911-1.33-1.568-1.8-1.97-.47-.4-1.15-.6-2.02-.6-2.85 0-5.06 1.54-6.65 4.62-1.58 3.082-2.38 6.28-2.38 9.598v9.516c0 3.063.39 5.159 1.18 6.289.78 1.13 2.85 1.696 6.2 1.696h2.9v5.03h-33.96v-5.03h2.85c3.06 0 4.94-.584 5.63-1.75.69-1.167 1.04-3.245 1.04-6.235v-15.97c0-2.441-.25-4.191-.74-5.25-.49-1.056-1.38-1.758-2.65-2.104-1.28-.346-3.32-.52-6.13-.52V93.93l21.33-4.703c.55 1.859 1.06 5.815 1.53 11.867a23.216 23.216 0 014.02-5.906c1.66-1.787 3.52-3.227 5.58-4.32 2.06-1.094 4.16-1.641 6.31-1.641 2.99 0 5.37.839 7.12 2.516s2.62 3.718 2.62 6.125z"
        fill-rule="nonzero" />
    <g>
        <path
            d="M1243.97 112.633c0 4.485-1.05 8.65-3.14 12.496-2.1 3.847-5 6.89-8.7 9.133-3.7 2.242-7.85 3.363-12.44 3.363-5.76 0-10.78-2.023-15.04-6.07v17.5c0 2.078.14 3.637.41 4.676.27 1.039.89 1.823 1.86 2.35.96.53 2.45.794 4.46.794h3v5.032h-31.77v-5.032c2.48 0 4.27-.21 5.36-.628 1.09-.42 1.8-1.14 2.11-2.161.3-1.02.46-2.698.46-5.031v-42.82c0-2.115-.16-3.646-.46-4.594-.31-.948-1.01-1.631-2.08-2.051-1.08-.42-2.87-.63-5.39-.63v-5.03l21.27-4.703c.44 1.458.7 3.773.77 6.945 2.41-2.406 4.89-4.165 7.46-5.277 2.57-1.112 5.54-1.668 8.89-1.668 3.65 0 6.91.656 9.79 1.969 2.88 1.312 5.29 3.07 7.22 5.277a23.397 23.397 0 014.43 7.547c1.02 2.825 1.53 5.697 1.53 8.613zm-15.09-.547c0-11.192-3.92-16.79-11.76-16.79-2.55 0-4.9.74-7.03 2.216a21.723 21.723 0 00-5.44 5.387v21.6a15.824 15.824 0 005.55 5.142c2.28 1.276 4.62 1.914 7.03 1.914 7.76 0 11.65-6.49 11.65-19.47v.001z"
            fill-rule="nonzero" />
    </g>
</svg>